<svg fill="none" height="17" viewBox="0 0 17 17" width="17" xmlns="http://www.w3.org/2000/svg"><path d="m14.0142.965088h-11.49596c-.59727 0-1.17008.237262-1.592409.659592-.422332.42234-.659596.99514-.659596 1.59241v11.49601c0 .5973.237264 1.1701.659596 1.5924.422329.4223.995139.6596 1.592409.6596h11.49596c.5973 0 1.1701-.2373 1.5924-.6596.4224-.4223.6596-.9951.6596-1.5924v-11.49601c0-.59727-.2372-1.17007-.6596-1.59241-.4223-.42233-.9951-.659592-1.5924-.659592zm-8.41396 12.784012c0 .04-.027.1-.08.181-.08.054-.141.08-.181.08h-1.85c-.04 0-.1-.026-.18-.08-.054-.08-.081-.14-.081-.181v-6.49401c0-.04.027-.1.08-.18.08-.054.14-.081.181-.081h1.85c.04 0 .1.027.18.08.054.08.081.14.081.181zm-.301-7.86101c-.11498.11758-.25282.21036-.40503.27262s-.31556.09268-.47997.08938c-.349 0-.643-.12-.885-.362-.11763-.11494-.21045-.25277-.27271-.40499s-.09265-.31559-.08929-.48001c0-.335.121-.623.362-.864.11368-.12065.25083-.21678.40302-.28248s.31621-.0996.48198-.0996c.16576 0 .32978.0339.48197.0996s.28934.16183.40303.28248c.24.24.361.53.361.864 0 .349-.12.644-.361.885zm8.16196 7.86101c-.0003.034-.0075.0676-.0213.0987-.0137.0312-.0337.0592-.0587.0823-.0231.0249-.0511.0449-.0822.0587-.0311.0137-.0647.021-.0988.0213h-1.89c-.04 0-.1-.026-.18-.08-.054-.08-.081-.14-.081-.181v-3.96001c0-.336-.06-.597-.181-.785-.148-.16-.389-.24-.724-.24-.42896 0-.73696.126-.92496.381-.174.255-.261.617-.261 1.08601v3.518c-.00032.034-.00758.0676-.02133.0987-.01376.0312-.03372.0592-.05867.0823-.02326.0251-.05141.0451-.08271.0589-.0313.0137-.0651.0209-.09929.0211h-1.85c-.04 0-.10001-.026-.18001-.08-.05399-.08-.07999-.14-.07999-.181v-6.49401c0-.04.026-.1.07999-.18.08-.054.14001-.081.18001-.081h1.79c.054 0 .10699.013.16.04.02799.014.055.06.081.14v.101l.01999.04v.161c.443-.428 1.05301-.643 1.82997-.643.871 0 1.541.208 2.01.623.483.442.724 1.08.724 1.91z" fill="#000"/></svg>